<svg xmlns="http://www.w3.org/2000/svg" width="32" height="32" viewBox="0 0 32 32" fill="none">
  <style>
    path { fill: #000000; }
    @media (prefers-color-scheme: dark) {
      path { fill: #FFFFFF; }
    }
  </style>
  <path d="M16 4C9.37258 4 4 9.37258 4 16C4 22.6274 9.37258 28 16 28C22.6274 28 28 22.6274 28 16C28 9.37258 22.6274 4 16 4ZM16 25.3333C10.8454 25.3333 6.66667 21.1546 6.66667 16C6.66667 10.8454 10.8454 6.66667 16 6.66667C21.1546 6.66667 25.3333 10.8454 25.3333 16C25.3333 21.1546 21.1546 25.3333 16 25.3333Z"/>
  <path d="M16 12C14.8954 12 14 12.8954 14 14C14 15.1046 14.8954 16 16 16C17.1046 16 18 16.8954 18 18C18 19.1046 17.1046 20 16 20" stroke-width="2" stroke-linecap="round"/>
  <circle cx="16" cy="12" r="1.5"/>
  <circle cx="16" cy="20" r="1.5"/>
</svg> 